<svg width="1460" height="526" viewBox="0 0 1460 526" fill="none" xmlns="http://www.w3.org/2000/svg">
<g filter="url(#filter0_d_171_255)">
<rect x="5" y="5" width="1440" height="506" rx="5" fill="white" fill-opacity="0.5" shape-rendering="crispEdges"/>
</g>
<rect x="725" y="20" width="640" height="476" rx="5" fill="#00A3AF" fill-opacity="0.15"/>
<path d="M250.168 372.21H251.704V385.506C251.704 386.338 251.48 386.674 250.936 386.898C250.376 387.09 249.528 387.106 248.184 387.106C248.104 386.754 247.864 386.21 247.672 385.89C248.536 385.922 249.496 385.906 249.768 385.906C250.072 385.89 250.168 385.794 250.168 385.506V372.21ZM244.024 373.394H257.992V374.61H244.024V373.394ZM247.128 376.434V377.41H254.856V376.434H247.128ZM245.688 375.426H256.408V378.418H245.688V375.426ZM245.256 379.362H256.664V385.378H255.128V380.434H245.256V379.362ZM243.688 381.362H258.328V382.53H243.688V381.362ZM245.112 383.538H255.944V384.674H245.112V383.538ZM259.96 382.05H274.088V383.314H259.96V382.05ZM260.008 374.962H274.024V376.226H260.008V374.962ZM260.664 377.762H273.432V378.978H260.664V377.762ZM261.464 379.938H272.664V381.074H261.464V379.938ZM266.216 378.354H267.72V387.074H266.216V378.354ZM264.776 372.194H266.2V375.57H264.776V372.194ZM267.784 372.194H269.224V375.49H267.784V372.194ZM265.848 382.594L267.048 383.138C265.544 384.802 262.904 386.178 260.488 386.834C260.28 386.466 259.832 385.874 259.512 385.57C261.896 385.058 264.504 383.906 265.848 382.594ZM268.104 382.546C269.432 383.906 272.04 385.042 274.504 385.506C274.152 385.826 273.704 386.45 273.48 386.866C271 386.21 268.424 384.786 266.92 383.042L268.104 382.546ZM271.48 372.37L273.048 372.77C272.568 373.65 272.008 374.546 271.576 375.17L270.344 374.77C270.744 374.114 271.24 373.09 271.48 372.37ZM269.352 375.778L270.936 376.162C270.52 376.898 270.104 377.618 269.768 378.13L268.488 377.762C268.792 377.186 269.176 376.354 269.352 375.778ZM261.24 372.786L262.536 372.338C263.048 373.042 263.608 374.018 263.832 374.658L262.472 375.17C262.264 374.53 261.72 373.522 261.24 372.786ZM263.304 376.306L264.76 376.05C265.08 376.546 265.416 377.218 265.56 377.682L264.04 377.97C263.912 377.522 263.608 376.802 263.304 376.306ZM281.96 377.65H290.584V379.138H281.96V377.65ZM285.56 372.274H287.08V387.058H285.56V372.274ZM276.312 377.09H281.384V378.258H276.312V377.09ZM276.408 372.754H281.4V373.922H276.408V372.754ZM276.312 379.25H281.384V380.418H276.312V379.25ZM275.544 374.866H282.008V376.098H275.544V374.866ZM277.016 381.426H281.336V386.194H277.016V384.962H279.992V382.658H277.016V381.426ZM276.28 381.426H277.608V386.882H276.28V381.426ZM293.192 384.658H304.776V386.098H293.192V384.658ZM291.864 373.218H306.136V374.642H291.864V373.218ZM292.36 376.002H293.832V387.058H292.36V376.002ZM304.184 376.002H305.656V387.026H304.184V376.002ZM298.168 373.65H299.704V376.818H298.168V373.65ZM298.28 376.77H299.592V382.946H298.28V376.77ZM296.392 380.418V382.194H301.496V380.418H296.392ZM296.392 377.458V379.234H301.496V377.458H296.392ZM295.128 376.21H302.808V383.458H295.128V376.21Z" fill="#4D4C4F"/>
<path d="M535.936 373.666C534.624 375.586 532.096 377.874 529.424 379.394C529.232 379.042 528.8 378.498 528.464 378.194C531.232 376.722 533.872 374.21 535.072 372.178H536.64C538.32 374.578 541.04 376.818 543.568 378.002C543.184 378.386 542.832 378.882 542.56 379.346C540.096 377.938 537.344 375.634 535.936 373.666ZM530.512 381.634H541.44V382.962H530.512V381.634ZM531.28 378.066H540.768V379.41H531.28V378.066ZM529.216 385.298H542.864V386.658H529.216V385.298ZM535.152 378.642H536.736V386.05H535.152V378.642ZM550.512 385.122H559.584V386.61H550.512V385.122ZM551.152 377.33H559.216V378.786H551.152V377.33ZM554.416 372.354H555.968V385.842H554.416V372.354ZM544.848 375.202H550.128V376.578H544.848V375.202ZM547.28 380.29L548.768 378.498V387.074H547.28V380.29ZM547.28 372.226H548.768V375.858H547.28V372.226ZM548.624 378.914C549.184 379.298 551.024 380.914 551.456 381.314L550.544 382.546C549.936 381.794 548.464 380.29 547.776 379.666L548.624 378.914ZM549.568 375.202H549.872L550.144 375.138L550.992 375.698C549.792 378.722 547.344 381.442 545.024 382.93C544.88 382.53 544.512 381.81 544.272 381.522C546.448 380.29 548.656 377.89 549.568 375.49V375.202ZM572.864 374.13C572.864 374.674 573.312 375.122 573.872 375.122C574.416 375.122 574.864 374.674 574.864 374.13C574.864 373.57 574.416 373.122 573.872 373.122C573.312 373.122 572.864 373.57 572.864 374.13ZM572.016 374.13C572.016 373.106 572.848 372.274 573.872 372.274C574.88 372.274 575.712 373.106 575.712 374.13C575.712 375.138 574.88 375.97 573.872 375.97C572.848 375.97 572.016 375.138 572.016 374.13ZM573.648 375.282C573.52 375.538 573.44 375.89 573.36 376.21C573.008 377.842 572.272 380.386 570.96 382.082C569.52 383.986 567.504 385.506 564.608 386.434L563.232 384.914C566.368 384.162 568.176 382.786 569.488 381.106C570.592 379.714 571.28 377.666 571.488 376.194C570.544 376.194 564.672 376.194 563.632 376.194C562.944 376.194 562.304 376.226 561.904 376.258V374.466C562.352 374.53 563.104 374.594 563.632 374.594C564.672 374.594 570.576 374.594 571.392 374.594C571.664 374.594 572.064 374.578 572.416 374.482L573.648 375.282ZM578.192 374.594C578.832 374.61 579.328 374.626 579.728 374.626C580.72 374.626 587.472 374.626 588.416 374.626C588.784 374.626 589.376 374.626 589.904 374.594C589.872 375.026 589.872 375.538 589.872 375.97C589.872 376.818 589.872 383.074 589.872 383.842C589.872 384.402 589.888 385.778 589.904 385.906H588.16C588.16 385.778 588.192 384.722 588.192 383.954C588.192 383.218 588.192 376.226 588.192 376.226H579.888C579.888 376.226 579.888 383.17 579.888 383.954C579.888 384.594 579.904 385.746 579.904 385.906H578.176C578.176 385.746 578.224 384.482 578.224 383.826C578.224 383.042 578.224 376.722 578.224 375.97C578.224 375.57 578.224 375.01 578.192 374.594ZM588.832 383.41V385.01H579.056V383.41H588.832ZM596.72 383.634C596.72 382.226 596.72 376.674 596.72 374.866C596.72 374.37 596.688 373.714 596.608 373.234H598.496C598.432 373.714 598.368 374.37 598.368 374.866C598.368 376.658 598.368 381.522 598.368 383.202C598.368 384.258 598.736 384.61 600.576 384.61C602.352 384.61 604 384.418 605.584 384.098L605.52 385.826C604.144 386.018 602.4 386.162 600.528 386.162C597.264 386.162 596.72 385.346 596.72 383.634ZM606.352 376.53C606.224 376.722 606.032 377.042 605.904 377.282C605.184 378.61 603.84 380.69 602.608 381.938L601.216 381.106C602.352 380.082 603.472 378.45 603.936 377.538C603.232 377.682 595.136 379.298 593.168 379.73L592.864 378.066C594.96 377.81 602.864 376.242 604.176 375.922C604.56 375.842 604.912 375.73 605.152 375.602L606.352 376.53ZM621.024 374.962C620.912 375.106 620.672 375.522 620.56 375.778C619.92 377.33 618.704 379.554 617.36 381.074C615.568 383.106 613.232 385.042 610.72 386.21L609.424 384.85C612 383.874 614.416 381.938 616 380.178C617.072 378.962 618.16 377.202 618.544 375.954C617.936 375.954 613.264 375.954 612.656 375.954C612.048 375.954 611.168 376.034 610.928 376.05V374.242C611.232 374.29 612.176 374.338 612.656 374.338C613.376 374.338 617.952 374.338 618.608 374.338C619.2 374.338 619.712 374.274 620 374.178L621.024 374.962ZM617.568 380.034C619.264 381.426 621.456 383.73 622.528 385.042L621.104 386.274C619.936 384.706 618.112 382.722 616.4 381.186L617.568 380.034Z" fill="#4D4C4F"/>
<path d="M528.96 415.471H543.088V416.735H528.96V415.471ZM529.008 408.383H543.024V409.647H529.008V408.383ZM529.664 411.183H542.432V412.399H529.664V411.183ZM530.464 413.359H541.664V414.495H530.464V413.359ZM535.216 411.775H536.72V420.495H535.216V411.775ZM533.776 405.615H535.2V408.991H533.776V405.615ZM536.784 405.615H538.224V408.911H536.784V405.615ZM534.848 416.015L536.048 416.559C534.544 418.223 531.904 419.599 529.488 420.255C529.28 419.887 528.832 419.295 528.512 418.991C530.896 418.479 533.504 417.327 534.848 416.015ZM537.104 415.967C538.432 417.327 541.04 418.463 543.504 418.927C543.152 419.247 542.704 419.871 542.48 420.287C540 419.631 537.424 418.207 535.92 416.463L537.104 415.967ZM540.48 405.791L542.048 406.191C541.568 407.071 541.008 407.967 540.576 408.591L539.344 408.191C539.744 407.535 540.24 406.511 540.48 405.791ZM538.352 409.199L539.936 409.583C539.52 410.319 539.104 411.039 538.768 411.551L537.488 411.183C537.792 410.607 538.176 409.775 538.352 409.199ZM530.24 406.207L531.536 405.759C532.048 406.463 532.608 407.439 532.832 408.079L531.472 408.591C531.264 407.951 530.72 406.943 530.24 406.207ZM532.304 409.727L533.76 409.471C534.08 409.967 534.416 410.639 534.56 411.103L533.04 411.391C532.912 410.943 532.608 410.223 532.304 409.727ZM544.88 406.399H550.24V407.695H544.88V406.399ZM551.168 414.607H557.904V415.887H551.168V414.607ZM544.688 411.263H550.672V412.591H544.688V411.263ZM547.408 411.807H548.848V418.799C548.848 419.519 548.72 419.935 548.24 420.175C547.776 420.399 547.104 420.431 546.112 420.431C546.064 420.031 545.872 419.407 545.664 419.007C546.32 419.023 546.96 419.023 547.168 419.023C547.344 419.007 547.408 418.959 547.408 418.783V411.807ZM557.408 414.607H558.944C558.944 414.607 558.928 415.007 558.896 415.215C558.608 418.127 558.32 419.343 557.856 419.839C557.552 420.175 557.232 420.271 556.784 420.335C556.4 420.367 555.712 420.367 554.976 420.335C554.96 419.919 554.8 419.327 554.576 418.927C555.216 418.991 555.824 419.007 556.08 419.007C556.32 419.007 556.464 418.991 556.608 418.847C556.928 418.543 557.184 417.471 557.408 414.815V414.607ZM553.936 413.087H555.44C555.152 416.335 554.416 419.055 550.72 420.495C550.56 420.143 550.16 419.599 549.84 419.327C553.168 418.111 553.68 415.791 553.936 413.087ZM545.36 409.359L546.304 408.383C547.632 408.911 549.328 409.807 550.208 410.495L549.184 411.599C548.384 410.895 546.704 409.935 545.36 409.359ZM550.304 411.263H550.496L550.72 411.199L551.632 411.503C551.328 412.895 550.88 414.479 550.416 415.519L549.376 415.023C549.728 414.127 550.08 412.671 550.304 411.503V411.263ZM556.704 407.903L558.272 408.159C557.2 411.087 554.8 412.655 551.728 413.583C551.552 413.247 551.088 412.623 550.784 412.319C553.712 411.647 555.904 410.303 556.704 407.903ZM553.392 405.615L554.8 406.015C554.032 407.727 552.768 409.359 551.552 410.383C551.28 410.143 550.672 409.711 550.32 409.519C551.568 408.591 552.736 407.135 553.392 405.615ZM553.312 408.271C554.448 410.271 556.768 411.759 559.6 412.335C559.264 412.639 558.832 413.231 558.624 413.615C555.696 412.847 553.36 411.119 552.064 408.687L553.312 408.271ZM547.248 411.711L548.24 412.079C547.632 414.207 546.512 416.655 545.216 417.903C545.072 417.471 544.72 416.847 544.48 416.463C545.632 415.407 546.736 413.439 547.248 411.711ZM553.168 407.295H559.216V408.559H552.544L553.168 407.295ZM549.888 406.399H550.208L550.448 406.351L551.424 406.959C550.704 408.095 549.44 409.343 548.32 410.111C548.048 409.871 547.616 409.551 547.312 409.375C548.32 408.687 549.392 407.503 549.888 406.671V406.399ZM572.864 407.551C572.864 408.095 573.312 408.543 573.872 408.543C574.416 408.543 574.864 408.095 574.864 407.551C574.864 406.991 574.416 406.543 573.872 406.543C573.312 406.543 572.864 406.991 572.864 407.551ZM572.016 407.551C572.016 406.527 572.848 405.695 573.872 405.695C574.88 405.695 575.712 406.527 575.712 407.551C575.712 408.559 574.88 409.391 573.872 409.391C572.848 409.391 572.016 408.559 572.016 407.551ZM573.648 408.703C573.52 408.959 573.44 409.311 573.36 409.631C573.008 411.263 572.272 413.807 570.96 415.503C569.52 417.407 567.504 418.927 564.608 419.855L563.232 418.335C566.368 417.583 568.176 416.207 569.488 414.527C570.592 413.135 571.28 411.087 571.488 409.615C570.544 409.615 564.672 409.615 563.632 409.615C562.944 409.615 562.304 409.647 561.904 409.679V407.887C562.352 407.951 563.104 408.015 563.632 408.015C564.672 408.015 570.576 408.015 571.392 408.015C571.664 408.015 572.064 407.999 572.416 407.903L573.648 408.703ZM578.192 408.015C578.832 408.031 579.328 408.047 579.728 408.047C580.72 408.047 587.472 408.047 588.416 408.047C588.784 408.047 589.376 408.047 589.904 408.015C589.872 408.447 589.872 408.959 589.872 409.391C589.872 410.239 589.872 416.495 589.872 417.263C589.872 417.823 589.888 419.199 589.904 419.327H588.16C588.16 419.199 588.192 418.143 588.192 417.375C588.192 416.639 588.192 409.647 588.192 409.647H579.888C579.888 409.647 579.888 416.591 579.888 417.375C579.888 418.015 579.904 419.167 579.904 419.327H578.176C578.176 419.167 578.224 417.903 578.224 417.247C578.224 416.463 578.224 410.143 578.224 409.391C578.224 408.991 578.224 408.431 578.192 408.015ZM588.832 416.831V418.431H579.056V416.831H588.832ZM596.72 417.055C596.72 415.647 596.72 410.095 596.72 408.287C596.72 407.791 596.688 407.135 596.608 406.655H598.496C598.432 407.135 598.368 407.791 598.368 408.287C598.368 410.079 598.368 414.943 598.368 416.623C598.368 417.679 598.736 418.031 600.576 418.031C602.352 418.031 604 417.839 605.584 417.519L605.52 419.247C604.144 419.439 602.4 419.583 600.528 419.583C597.264 419.583 596.72 418.767 596.72 417.055ZM606.352 409.951C606.224 410.143 606.032 410.463 605.904 410.703C605.184 412.031 603.84 414.111 602.608 415.359L601.216 414.527C602.352 413.503 603.472 411.871 603.936 410.959C603.232 411.103 595.136 412.719 593.168 413.151L592.864 411.487C594.96 411.231 602.864 409.663 604.176 409.343C604.56 409.263 604.912 409.151 605.152 409.023L606.352 409.951ZM621.024 408.383C620.912 408.527 620.672 408.943 620.56 409.199C619.92 410.751 618.704 412.975 617.36 414.495C615.568 416.527 613.232 418.463 610.72 419.631L609.424 418.271C612 417.295 614.416 415.359 616 413.599C617.072 412.383 618.16 410.623 618.544 409.375C617.936 409.375 613.264 409.375 612.656 409.375C612.048 409.375 611.168 409.455 610.928 409.471V407.663C611.232 407.711 612.176 407.759 612.656 407.759C613.376 407.759 617.952 407.759 618.608 407.759C619.2 407.759 619.712 407.695 620 407.599L621.024 408.383ZM617.568 413.455C619.264 414.847 621.456 417.151 622.528 418.463L621.104 419.695C619.936 418.127 618.112 416.143 616.4 414.607L617.568 413.455Z" fill="#4D4C4F"/>
<path d="M517.808 441.579H526.144V446.971H524.656V443.003H517.808V441.579ZM516.96 446.315H527.424V447.739H516.96V446.315ZM520.752 439.067H522.272V444.603C522.272 448.075 521.792 451.627 517.424 453.947C517.152 453.627 516.576 453.115 516.176 452.875C520.336 450.763 520.752 447.691 520.752 444.587V439.067ZM522.976 447.051C523.68 449.643 525.2 451.691 527.568 452.635C527.216 452.939 526.736 453.531 526.512 453.947C523.968 452.779 522.416 450.475 521.584 447.403L522.976 447.051ZM513.408 440.267L514.24 439.163C515.248 439.579 516.512 440.267 517.136 440.827L516.272 442.059C515.664 441.483 514.432 440.731 513.408 440.267ZM512.528 444.619L513.344 443.483C514.352 443.851 515.664 444.523 516.304 445.051L515.44 446.315C514.832 445.771 513.552 445.051 512.528 444.619ZM512.976 452.731C513.776 451.499 514.912 449.419 515.76 447.563L516.928 448.507C516.144 450.203 515.168 452.155 514.288 453.691L512.976 452.731ZM528.832 450.011H543.2V451.243H528.832V450.011ZM532.256 445.355V446.139H539.984V445.355H532.256ZM532.256 447.051V447.851H539.984V447.051H532.256ZM532.256 443.691V444.459H539.984V443.691H532.256ZM530.736 442.731H541.568V448.811H530.736V442.731ZM538.096 448.555H539.664V453.883H538.096V448.555ZM530.656 440.187H535.776V441.403H530.656V440.187ZM536.912 440.187H543.104V441.403H536.912V440.187ZM530.864 438.955L532.272 439.339C531.648 440.747 530.64 442.155 529.68 443.051C529.392 442.811 528.8 442.411 528.448 442.219C529.44 441.419 530.352 440.187 530.864 438.955ZM537.248 438.955L538.688 439.307C538.16 440.683 537.216 442.011 536.304 442.843C536 442.619 535.344 442.267 534.976 442.107C535.968 441.355 536.8 440.171 537.248 438.955ZM531.52 441.131L532.768 440.715C533.168 441.211 533.616 441.915 533.792 442.379L532.48 442.859C532.304 442.395 531.904 441.659 531.52 441.131ZM538.384 441.099L539.6 440.587C540.112 441.083 540.72 441.787 541.008 442.299L539.728 442.875C539.488 442.379 538.896 441.627 538.384 441.099ZM532.8 448.539H534.336V449.947C534.336 451.371 533.648 452.923 530.016 453.915C529.808 453.595 529.392 453.083 529.072 452.795C532.336 452.059 532.8 450.827 532.8 449.915V448.539ZM551.6 442.859H559.44V444.251H551.6V442.859ZM556.032 439.099H557.536V452.107C557.536 452.939 557.344 453.355 556.832 453.611C556.336 453.867 555.568 453.915 554.384 453.915C554.32 453.515 554.08 452.843 553.856 452.443C554.688 452.459 555.44 452.459 555.68 452.459C555.936 452.443 556.032 452.363 556.032 452.107V439.099ZM555.792 443.451L557.008 443.819C555.968 446.843 554.176 449.739 552.208 451.371C551.952 451.035 551.504 450.523 551.168 450.267C553.088 448.875 554.88 446.107 555.792 443.451ZM546.416 450.107L547.856 450.475C547.36 451.787 546.512 453.099 545.648 453.931C545.392 453.675 544.768 453.243 544.432 453.051C545.28 452.331 546.016 451.211 546.416 450.107ZM548.656 450.651L549.872 450.091C550.56 450.875 551.296 451.931 551.632 452.667L550.352 453.323C550.032 452.587 549.312 451.467 548.656 450.651ZM546.784 443.851V445.659H549.648V443.851H546.784ZM546.784 446.795V448.635H549.648V446.795H546.784ZM546.784 440.907V442.699H549.648V440.907H546.784ZM545.36 439.675H551.136V449.851H545.36V439.675ZM560.88 439.819H566.24V441.115H560.88V439.819ZM567.168 448.027H573.904V449.307H567.168V448.027ZM560.688 444.683H566.672V446.011H560.688V444.683ZM563.408 445.227H564.848V452.219C564.848 452.939 564.72 453.355 564.24 453.595C563.776 453.819 563.104 453.851 562.112 453.851C562.064 453.451 561.872 452.827 561.664 452.427C562.32 452.443 562.96 452.443 563.168 452.443C563.344 452.427 563.408 452.379 563.408 452.203V445.227ZM573.408 448.027H574.944C574.944 448.027 574.928 448.427 574.896 448.635C574.608 451.547 574.32 452.763 573.856 453.259C573.552 453.595 573.232 453.691 572.784 453.755C572.4 453.787 571.712 453.787 570.976 453.755C570.96 453.339 570.8 452.747 570.576 452.347C571.216 452.411 571.824 452.427 572.08 452.427C572.32 452.427 572.464 452.411 572.608 452.267C572.928 451.963 573.184 450.891 573.408 448.235V448.027ZM569.936 446.507H571.44C571.152 449.755 570.416 452.475 566.72 453.915C566.56 453.563 566.16 453.019 565.84 452.747C569.168 451.531 569.68 449.211 569.936 446.507ZM561.36 442.779L562.304 441.803C563.632 442.331 565.328 443.227 566.208 443.915L565.184 445.019C564.384 444.315 562.704 443.355 561.36 442.779ZM566.304 444.683H566.496L566.72 444.619L567.632 444.923C567.328 446.315 566.88 447.899 566.416 448.939L565.376 448.443C565.728 447.547 566.08 446.091 566.304 444.923V444.683ZM572.704 441.323L574.272 441.579C573.2 444.507 570.8 446.075 567.728 447.003C567.552 446.667 567.088 446.043 566.784 445.739C569.712 445.067 571.904 443.723 572.704 441.323ZM569.392 439.035L570.8 439.435C570.032 441.147 568.768 442.779 567.552 443.803C567.28 443.563 566.672 443.131 566.32 442.939C567.568 442.011 568.736 440.555 569.392 439.035ZM569.312 441.691C570.448 443.691 572.768 445.179 575.6 445.755C575.264 446.059 574.832 446.651 574.624 447.035C571.696 446.267 569.36 444.539 568.064 442.107L569.312 441.691ZM563.248 445.131L564.24 445.499C563.632 447.627 562.512 450.075 561.216 451.323C561.072 450.891 560.72 450.267 560.48 449.883C561.632 448.827 562.736 446.859 563.248 445.131ZM569.168 440.715H575.216V441.979H568.544L569.168 440.715ZM565.888 439.819H566.208L566.448 439.771L567.424 440.379C566.704 441.515 565.44 442.763 564.32 443.531C564.048 443.291 563.616 442.971 563.312 442.795C564.32 442.107 565.392 440.923 565.888 440.091V439.819ZM588.864 440.971C588.864 441.515 589.312 441.963 589.872 441.963C590.416 441.963 590.864 441.515 590.864 440.971C590.864 440.411 590.416 439.963 589.872 439.963C589.312 439.963 588.864 440.411 588.864 440.971ZM588.016 440.971C588.016 439.947 588.848 439.115 589.872 439.115C590.88 439.115 591.712 439.947 591.712 440.971C591.712 441.979 590.88 442.811 589.872 442.811C588.848 442.811 588.016 441.979 588.016 440.971ZM589.648 442.123C589.52 442.379 589.44 442.731 589.36 443.051C589.008 444.683 588.272 447.227 586.96 448.923C585.52 450.827 583.504 452.347 580.608 453.275L579.232 451.755C582.368 451.003 584.176 449.627 585.488 447.947C586.592 446.555 587.28 444.507 587.488 443.035C586.544 443.035 580.672 443.035 579.632 443.035C578.944 443.035 578.304 443.067 577.904 443.099V441.307C578.352 441.371 579.104 441.435 579.632 441.435C580.672 441.435 586.576 441.435 587.392 441.435C587.664 441.435 588.064 441.419 588.416 441.323L589.648 442.123ZM594.192 441.435C594.832 441.451 595.328 441.467 595.728 441.467C596.72 441.467 603.472 441.467 604.416 441.467C604.784 441.467 605.376 441.467 605.904 441.435C605.872 441.867 605.872 442.379 605.872 442.811C605.872 443.659 605.872 449.915 605.872 450.683C605.872 451.243 605.888 452.619 605.904 452.747H604.16C604.16 452.619 604.192 451.563 604.192 450.795C604.192 450.059 604.192 443.067 604.192 443.067H595.888C595.888 443.067 595.888 450.011 595.888 450.795C595.888 451.435 595.904 452.587 595.904 452.747H594.176C594.176 452.587 594.224 451.323 594.224 450.667C594.224 449.883 594.224 443.563 594.224 442.811C594.224 442.411 594.224 441.851 594.192 441.435ZM604.832 450.251V451.851H595.056V450.251H604.832ZM612.72 450.475C612.72 449.067 612.72 443.515 612.72 441.707C612.72 441.211 612.688 440.555 612.608 440.075H614.496C614.432 440.555 614.368 441.211 614.368 441.707C614.368 443.499 614.368 448.363 614.368 450.043C614.368 451.099 614.736 451.451 616.576 451.451C618.352 451.451 620 451.259 621.584 450.939L621.52 452.667C620.144 452.859 618.4 453.003 616.528 453.003C613.264 453.003 612.72 452.187 612.72 450.475ZM622.352 443.371C622.224 443.563 622.032 443.883 621.904 444.123C621.184 445.451 619.84 447.531 618.608 448.779L617.216 447.947C618.352 446.923 619.472 445.291 619.936 444.379C619.232 444.523 611.136 446.139 609.168 446.571L608.864 444.907C610.96 444.651 618.864 443.083 620.176 442.763C620.56 442.683 620.912 442.571 621.152 442.443L622.352 443.371ZM637.024 441.803C636.912 441.947 636.672 442.363 636.56 442.619C635.92 444.171 634.704 446.395 633.36 447.915C631.568 449.947 629.232 451.883 626.72 453.051L625.424 451.691C628 450.715 630.416 448.779 632 447.019C633.072 445.803 634.16 444.043 634.544 442.795C633.936 442.795 629.264 442.795 628.656 442.795C628.048 442.795 627.168 442.875 626.928 442.891V441.083C627.232 441.131 628.176 441.179 628.656 441.179C629.376 441.179 633.952 441.179 634.608 441.179C635.2 441.179 635.712 441.115 636 441.019L637.024 441.803ZM633.568 446.875C635.264 448.267 637.456 450.571 638.528 451.883L637.104 453.115C635.936 451.547 634.112 449.563 632.4 448.027L633.568 446.875Z" fill="#4D4C4F"/>
<path d="M537.536 485.975V474.199H539.408V485.975H537.536ZM544.874 485.975V475.767H541.418V474.199H550.202V475.767H546.746V485.975H544.874ZM563.583 474.391C563.583 474.935 564.031 475.383 564.591 475.383C565.135 475.383 565.583 474.935 565.583 474.391C565.583 473.831 565.135 473.383 564.591 473.383C564.031 473.383 563.583 473.831 563.583 474.391ZM562.735 474.391C562.735 473.367 563.567 472.535 564.591 472.535C565.599 472.535 566.431 473.367 566.431 474.391C566.431 475.399 565.599 476.231 564.591 476.231C563.567 476.231 562.735 475.399 562.735 474.391ZM564.367 475.543C564.239 475.799 564.159 476.151 564.079 476.471C563.727 478.103 562.991 480.647 561.679 482.343C560.239 484.247 558.223 485.767 555.327 486.695L553.951 485.175C557.087 484.423 558.895 483.047 560.207 481.367C561.311 479.975 561.999 477.927 562.207 476.455C561.263 476.455 555.391 476.455 554.351 476.455C553.663 476.455 553.023 476.487 552.623 476.519V474.727C553.071 474.791 553.823 474.855 554.351 474.855C555.391 474.855 561.295 474.855 562.111 474.855C562.383 474.855 562.783 474.839 563.135 474.743L564.367 475.543ZM568.911 474.855C569.551 474.871 570.047 474.887 570.447 474.887C571.439 474.887 578.191 474.887 579.135 474.887C579.503 474.887 580.095 474.887 580.623 474.855C580.591 475.287 580.591 475.799 580.591 476.231C580.591 477.079 580.591 483.335 580.591 484.103C580.591 484.663 580.607 486.039 580.623 486.167H578.879C578.879 486.039 578.911 484.983 578.911 484.215C578.911 483.479 578.911 476.487 578.911 476.487H570.607C570.607 476.487 570.607 483.431 570.607 484.215C570.607 484.855 570.623 486.007 570.623 486.167H568.895C568.895 486.007 568.943 484.743 568.943 484.087C568.943 483.303 568.943 476.983 568.943 476.231C568.943 475.831 568.943 475.271 568.911 474.855ZM579.551 483.671V485.271H569.775V483.671H579.551ZM587.439 483.895C587.439 482.487 587.439 476.935 587.439 475.127C587.439 474.631 587.407 473.975 587.327 473.495H589.215C589.151 473.975 589.087 474.631 589.087 475.127C589.087 476.919 589.087 481.783 589.087 483.463C589.087 484.519 589.455 484.871 591.295 484.871C593.071 484.871 594.719 484.679 596.303 484.359L596.239 486.087C594.863 486.279 593.119 486.423 591.247 486.423C587.983 486.423 587.439 485.607 587.439 483.895ZM597.071 476.791C596.943 476.983 596.751 477.303 596.623 477.543C595.903 478.871 594.559 480.951 593.327 482.199L591.935 481.367C593.071 480.343 594.191 478.711 594.655 477.799C593.951 477.943 585.855 479.559 583.887 479.991L583.583 478.327C585.679 478.071 593.583 476.503 594.895 476.183C595.279 476.103 595.631 475.991 595.871 475.863L597.071 476.791ZM611.743 475.223C611.631 475.367 611.391 475.783 611.279 476.039C610.639 477.591 609.423 479.815 608.079 481.335C606.287 483.367 603.951 485.303 601.439 486.471L600.143 485.111C602.719 484.135 605.135 482.199 606.719 480.439C607.791 479.223 608.879 477.463 609.263 476.215C608.655 476.215 603.983 476.215 603.375 476.215C602.767 476.215 601.887 476.295 601.647 476.311V474.503C601.951 474.551 602.895 474.599 603.375 474.599C604.095 474.599 608.671 474.599 609.327 474.599C609.919 474.599 610.431 474.535 610.719 474.439L611.743 475.223ZM608.287 480.295C609.983 481.687 612.175 483.991 613.247 485.303L611.823 486.535C610.655 484.967 608.831 482.983 607.119 481.447L608.287 480.295Z" fill="#4D4C4F"/>
<path d="M856.84 374.594H865.288V380.066H863.416V376.386H856.84V374.594ZM856.04 379.298H866.504V381.106H856.04V379.298ZM859.512 372.13H861.432V377.73C861.432 381.218 860.984 384.882 856.808 387.202C856.456 386.802 855.704 386.146 855.208 385.842C859.112 383.794 859.512 380.754 859.512 377.714V372.13ZM862.296 380.306C862.984 382.642 864.44 384.594 866.664 385.506C866.216 385.89 865.608 386.658 865.32 387.186C862.856 385.986 861.384 383.714 860.52 380.738L862.296 380.306ZM852.36 373.618L853.4 372.21C854.392 372.594 855.688 373.25 856.328 373.794L855.224 375.362C854.632 374.802 853.368 374.066 852.36 373.618ZM851.432 377.97L852.472 376.53C853.464 376.882 854.792 377.522 855.448 378.05L854.344 379.65C853.736 379.106 852.456 378.402 851.432 377.97ZM851.896 385.73C852.696 384.514 853.832 382.482 854.712 380.61L856.184 381.81C855.4 383.506 854.456 385.362 853.56 386.946L851.896 385.73ZM867.768 383.026H882.264V384.546H867.768V383.026ZM871.56 378.658V379.234H878.68V378.658H871.56ZM871.56 380.322V380.914H878.68V380.322H871.56ZM871.56 377.01V377.586H878.68V377.01H871.56ZM869.624 375.858H880.712V382.066H869.624V375.858ZM876.888 381.762H878.872V387.122H876.888V381.762ZM869.72 373.17H874.76V374.69H869.72V373.17ZM876.072 373.17H882.2V374.69H876.072V373.17ZM869.784 372.002L871.576 372.498C870.92 373.906 869.848 375.346 868.872 376.242C868.504 375.938 867.752 375.442 867.32 375.202C868.328 374.434 869.272 373.202 869.784 372.002ZM876.296 372.002L878.12 372.45C877.576 373.842 876.6 375.202 875.688 376.05C875.288 375.762 874.456 375.346 873.992 375.154C875 374.402 875.848 373.202 876.296 372.002ZM870.36 374.338L871.944 373.81C872.344 374.306 872.792 375.01 872.984 375.49L871.32 376.082C871.144 375.618 870.744 374.866 870.36 374.338ZM877.4 374.322L878.936 373.682C879.448 374.178 880.072 374.882 880.36 375.394L878.744 376.098C878.488 375.618 877.912 374.85 877.4 374.322ZM871.576 381.746H873.512V383.282C873.512 384.786 872.696 386.258 869.176 387.154C868.92 386.754 868.392 386.114 867.976 385.746C871.048 385.154 871.576 384.082 871.576 383.25V381.746ZM885.784 381.986H896.44V387.186H894.504V383.186H887.64V387.202H885.784V381.986ZM886.76 383.778H895.192V384.898H886.76V383.778ZM886.76 385.522H895.192V386.738H886.76V385.522ZM889.96 372.082H891.896V381.01H889.96V372.082ZM885.416 373.09H896.36V377.842H885.24V376.722H894.456V374.21H885.416V373.09ZM883.784 374.786H898.216V376.114H883.784V374.786ZM884.888 378.402H897.032V379.57H884.888V378.402ZM883.752 380.146H898.2V381.474H883.752V380.146Z" fill="#4D4C4F"/>
<path d="M844.472 418.223C847.336 418.143 851.784 417.983 855.816 417.807L855.752 419.567C851.832 419.791 847.608 419.983 844.728 420.095L844.472 418.223ZM844.392 413.455H857.704V415.247H844.392V413.455ZM847.24 410.383H854.744V412.143H847.24V410.383ZM848.312 414.623L850.504 415.231C849.752 416.735 848.888 418.399 848.168 419.471L846.488 418.911C847.144 417.743 847.912 415.967 848.312 414.623ZM852.28 416.271L853.976 415.391C855.416 416.623 856.904 418.303 857.64 419.519L855.864 420.591C855.192 419.375 853.656 417.551 852.28 416.271ZM850.984 407.423C849.688 409.247 847.192 411.295 844.536 412.559C844.312 412.095 843.8 411.375 843.4 410.959C846.136 409.759 848.696 407.471 849.88 405.583H851.912C853.608 407.935 856.152 409.759 858.696 410.671C858.232 411.151 857.8 411.839 857.448 412.415C855.048 411.295 852.344 409.279 850.984 407.423ZM865.976 410.927H874.648V412.831H865.976V410.927ZM869.352 405.615H871.304V420.575H869.352V405.615ZM860.248 410.463H865.416V411.903H860.248V410.463ZM860.344 406.047H865.448V407.503H860.344V406.047ZM860.248 412.639H865.416V414.095H860.248V412.639ZM859.464 408.207H866.056V409.727H859.464V408.207ZM861.128 414.863H865.368V419.727H861.128V418.207H863.688V416.383H861.128V414.863ZM860.2 414.863H861.864V420.367H860.2V414.863ZM878.664 406.447H883.192V408.399H878.664V406.447ZM882.248 406.447H884.232C884.232 409.487 884.664 415.375 890.6 418.847C890.152 419.199 889.384 420.047 889.048 420.527C882.952 416.863 882.248 409.711 882.248 406.447ZM881.56 409.951L883.768 410.351C882.648 415.103 880.52 418.543 877.176 420.559C876.824 420.143 875.928 419.343 875.432 418.991C878.776 417.295 880.696 414.191 881.56 409.951ZM892.2 408.879H904.456V410.847H892.2V408.879ZM903.672 408.879H905.672C905.672 408.879 905.656 409.535 905.624 409.807C905.304 416.207 904.984 418.639 904.264 419.487C903.8 420.095 903.336 420.271 902.632 420.367C902.024 420.463 901.032 420.447 900.056 420.399C900.024 419.839 899.752 418.975 899.384 418.415C900.408 418.495 901.352 418.511 901.784 418.511C902.104 418.511 902.296 418.447 902.52 418.239C903.08 417.695 903.4 415.167 903.672 409.263V408.879ZM897.112 405.583H899.144V408.879C899.144 412.511 898.632 417.583 893.192 420.655C892.888 420.191 892.168 419.439 891.688 419.103C896.664 416.399 897.112 411.967 897.112 408.879V405.583Z" fill="#4D4C4F"/>
<path d="M795.752 439.707H802.6V441.355H795.752V439.707ZM796.344 448.299H803.816V449.995H796.344V448.299ZM795.368 451.867H804.488V453.563H795.368V451.867ZM802.04 439.707H802.408L802.76 439.643L804.04 440.203C802.776 443.995 799.896 446.107 796.296 447.243C796.072 446.763 795.608 446.027 795.24 445.643C798.424 444.827 801.096 442.859 802.04 440.011V439.707ZM798.232 441.147C799.336 443.339 801.672 444.939 804.712 445.595C804.312 445.963 803.8 446.683 803.544 447.147C800.312 446.283 797.96 444.427 796.552 441.691L798.232 441.147ZM799.064 446.395H800.952V452.955H799.064V446.395ZM791.88 438.987L793.544 439.611C792.888 440.827 792.152 442.251 791.528 443.147L790.248 442.587C790.824 441.643 791.512 440.107 791.88 438.987ZM793.72 440.875L795.272 441.579C794.12 443.419 792.552 445.643 791.336 447.035L790.232 446.411C791.416 444.955 792.888 442.603 793.72 440.875ZM789.416 442.779L790.328 441.467C791.176 442.203 792.168 443.211 792.584 443.947L791.592 445.435C791.208 444.667 790.232 443.547 789.416 442.779ZM793.24 444.699L794.504 444.171C795.128 445.243 795.736 446.651 795.928 447.579L794.568 448.187C794.392 447.259 793.848 445.803 793.24 444.699ZM789.4 446.027C790.872 445.979 793.032 445.899 795.144 445.803L795.128 447.323C793.16 447.467 791.112 447.595 789.56 447.707L789.4 446.027ZM793.592 448.683L794.936 448.251C795.336 449.163 795.752 450.363 795.928 451.163L794.52 451.659C794.36 450.859 793.944 449.627 793.592 448.683ZM790.088 448.379L791.672 448.651C791.512 450.187 791.16 451.787 790.696 452.811C790.36 452.603 789.64 452.267 789.24 452.107C789.704 451.163 789.96 449.739 790.088 448.379ZM791.88 446.875H793.56V454.011H791.88V446.875ZM813.208 444.123V445.499H818.056V444.123H813.208ZM813.208 441.275V442.619H818.056V441.275H813.208ZM811.48 439.643H819.88V447.115H811.48V439.643ZM811.368 448.491H820.056V450.219H811.368V448.491ZM810.248 451.755H820.584V453.483H810.248V451.755ZM805.56 439.883H810.872V441.675H805.56V439.883ZM805.72 444.491H810.6V446.267H805.72V444.491ZM805.384 450.571C806.76 450.219 808.808 449.579 810.728 448.955L811.064 450.795C809.272 451.403 807.352 452.027 805.816 452.523L805.384 450.571ZM807.336 440.587H809.16V450.427L807.336 450.715V440.587ZM814.856 440.331H816.472V446.363H816.648V452.571H814.68V446.363H814.856V440.331ZM823.432 441.067C824.664 441.099 827.128 441.083 828.888 440.827C830.504 440.587 832.12 440.235 832.92 439.851L834.248 441.611C833.704 441.755 833.272 441.867 833.016 441.931C832.024 442.187 830.744 442.395 829.512 442.571C827.688 442.827 825.336 442.891 823.944 442.923L823.432 441.067ZM824.12 452.107C826.952 450.811 828.216 448.699 828.216 445.707C828.216 445.707 828.216 444.667 828.216 442.395L830.312 442.155C830.312 443.531 830.312 445.659 830.312 445.659C830.312 448.891 829.256 451.627 826.168 453.483L824.12 452.107ZM822.232 444.907C822.68 444.939 823.208 444.987 823.72 444.987C824.728 444.987 833.288 444.987 834.36 444.987C834.696 444.987 835.448 444.939 835.8 444.907V446.971C835.368 446.939 834.84 446.907 834.392 446.907C833.384 446.907 824.68 446.907 823.736 446.907C823.24 446.907 822.648 446.939 822.232 446.971V444.907ZM840.136 443.899C840.488 443.947 841.064 443.979 841.416 443.979H848.728C849.128 443.979 849.592 443.947 849.976 443.899V445.899C849.576 445.867 849.096 445.851 848.728 445.851H841.416C841.064 445.851 840.488 445.867 840.136 445.899V443.899ZM843.896 452.075V444.987H845.992V452.075H843.896ZM839.336 450.891C839.736 450.955 840.232 450.987 840.648 450.987H849.48C849.928 450.987 850.36 450.939 850.696 450.891V452.987C850.36 452.939 849.768 452.923 849.48 452.923H840.648C840.248 452.923 839.752 452.939 839.336 452.987V450.891ZM861.064 443.067C861.368 443.739 862.152 445.835 862.376 446.571L860.472 447.227C860.264 446.459 859.56 444.523 859.176 443.691L861.064 443.067ZM866.968 444.219C866.792 444.747 866.696 445.083 866.6 445.403C866.184 447.019 865.496 448.683 864.408 450.075C862.92 452.011 860.936 453.339 859.064 454.059L857.384 452.347C859.128 451.867 861.368 450.651 862.68 448.987C863.768 447.643 864.552 445.515 864.728 443.499L866.968 444.219ZM857.352 443.899C857.752 444.715 858.536 446.667 858.84 447.563L856.888 448.283C856.632 447.435 855.816 445.291 855.432 444.603L857.352 443.899ZM883.384 442.619C883.208 442.923 882.984 443.355 882.856 443.755C882.424 445.195 881.512 447.323 880.056 449.099C878.536 450.955 876.616 452.427 873.608 453.611L871.72 451.931C874.984 450.939 876.76 449.547 878.168 447.963C879.256 446.715 880.184 444.795 880.44 443.611H875.048L875.784 441.787C876.488 441.787 879.848 441.787 880.344 441.787C880.84 441.787 881.384 441.723 881.736 441.595L883.384 442.619ZM878.168 440.075C877.784 440.635 877.368 441.371 877.192 441.707C876.104 443.643 874.2 445.899 871.896 447.467L870.104 446.139C872.904 444.427 874.312 442.363 875.096 440.987C875.336 440.603 875.672 439.867 875.816 439.307L878.168 440.075ZM892.688 444.443C893.808 444.443 894.72 445.355 894.72 446.475C894.72 447.611 893.808 448.523 892.688 448.523C891.552 448.523 890.64 447.611 890.64 446.475C890.64 445.355 891.552 444.443 892.688 444.443ZM903.808 451.931C903.984 451.531 904.016 451.259 904.016 450.891C904.016 449.675 904.016 443.995 904.016 442.203C904.016 441.611 903.92 440.843 903.824 440.395H906.336C906.256 441.003 906.192 441.595 906.192 442.203C906.192 443.979 906.192 449.307 906.192 450.523C908.8 449.787 912.368 447.739 914.416 445.227L915.552 447.051C913.36 449.659 910.032 451.579 906.256 452.811C906.048 452.875 905.696 452.987 905.312 453.243L903.808 451.931ZM931.072 442.619C930.896 442.923 930.672 443.355 930.544 443.755C930.112 445.195 929.2 447.323 927.744 449.099C926.224 450.955 924.304 452.427 921.296 453.611L919.408 451.931C922.672 450.939 924.448 449.547 925.856 447.963C926.944 446.715 927.872 444.795 928.128 443.611H922.736L923.472 441.787C924.176 441.787 927.536 441.787 928.032 441.787C928.528 441.787 929.072 441.723 929.424 441.595L931.072 442.619ZM925.856 440.075C925.472 440.635 925.056 441.371 924.88 441.707C923.792 443.643 921.888 445.899 919.584 447.467L917.792 446.139C920.592 444.427 922 442.363 922.784 440.987C923.024 440.603 923.36 439.867 923.504 439.307L925.856 440.075ZM935.12 441.067C936.352 441.099 938.816 441.083 940.576 440.827C942.192 440.587 943.808 440.235 944.608 439.851L945.936 441.611C945.392 441.755 944.96 441.867 944.704 441.931C943.712 442.187 942.432 442.395 941.2 442.571C939.376 442.827 937.024 442.891 935.632 442.923L935.12 441.067ZM935.808 452.107C938.64 450.811 939.904 448.699 939.904 445.707C939.904 445.707 939.904 444.667 939.904 442.395L942 442.155C942 443.531 942 445.659 942 445.659C942 448.891 940.944 451.627 937.856 453.483L935.808 452.107ZM933.92 444.907C934.368 444.939 934.896 444.987 935.408 444.987C936.416 444.987 944.976 444.987 946.048 444.987C946.384 444.987 947.136 444.939 947.488 444.907V446.971C947.056 446.939 946.528 446.907 946.08 446.907C945.072 446.907 936.368 446.907 935.424 446.907C934.928 446.907 934.336 446.939 933.92 446.971V444.907ZM954.931 442.395C954.979 442.779 955.091 443.195 955.187 443.611C955.731 445.531 957.235 451.035 957.635 452.363C957.715 452.651 957.939 453.355 958.051 453.675L955.891 454.219C955.827 453.787 955.731 453.259 955.603 452.811C955.203 451.419 953.747 445.707 953.235 444.043C953.123 443.643 952.947 443.243 952.771 442.907L954.931 442.395ZM962.611 444.875C961.923 446.267 960.323 448.683 959.203 449.867L957.427 448.987C958.259 448.251 959.363 446.907 959.795 446.123C958.963 446.267 952.451 447.627 951.139 447.915L950.643 446.011C951.139 445.963 951.587 445.915 952.115 445.819C952.979 445.691 959.379 444.475 960.515 444.219C960.787 444.155 961.107 444.059 961.315 443.963L962.611 444.875ZM965.987 445.147C966.579 445.195 967.731 445.259 968.563 445.259C970.451 445.259 975.731 445.259 977.155 445.259C977.907 445.259 978.611 445.179 979.043 445.147V447.675C978.659 447.659 977.843 447.579 977.171 447.579C975.715 447.579 970.451 447.579 968.563 447.579C967.667 447.579 966.595 447.627 965.987 447.675V445.147Z" fill="#4D4C4F"/>
<path d="M1160.55 374.258H1173.53V383.778H1171.53V376.098H1162.46V383.874H1160.55V374.258ZM1161.8 377.73H1172.47V379.49H1161.8V377.73ZM1161.8 381.186H1172.5V383.026H1161.8V381.186ZM1165.94 372.13H1167.94V387.154H1165.94V372.13ZM1175.93 377.794H1190.09V379.586H1175.93V377.794ZM1178.6 374.21H1189.1V375.954H1178.6V374.21ZM1178.76 384.658H1187.43V386.434H1178.76V384.658ZM1182.38 372.13H1184.42V378.882H1182.38V372.13ZM1177.75 380.738H1188.54V387.154H1186.47V382.498H1179.72V387.202H1177.75V380.738ZM1178.54 372.162L1180.46 372.642C1179.78 374.594 1178.65 376.546 1177.56 377.778C1177.16 377.474 1176.28 376.978 1175.82 376.754C1176.97 375.682 1177.98 373.906 1178.54 372.162Z" fill="#4D4C4F"/>
<path d="M1149.21 414.543L1150.74 415.071C1150.38 416.495 1149.78 418.047 1148.71 419.055L1147.32 417.935C1148.25 417.135 1148.87 415.823 1149.21 414.543ZM1153.02 415.391L1154.42 414.863C1154.97 415.903 1155.43 417.279 1155.59 418.191L1154.09 418.783C1153.96 417.855 1153.51 416.447 1153.02 415.391ZM1155.02 415.071L1156.5 414.319C1157.45 415.519 1158.34 417.135 1158.71 418.255L1157.1 419.103C1156.79 417.983 1155.91 416.287 1155.02 415.071ZM1155 410.175C1155.72 411.519 1157.13 412.719 1158.74 413.311C1158.33 413.663 1157.75 414.367 1157.48 414.847C1155.7 414.047 1154.23 412.479 1153.35 410.703L1155 410.175ZM1151.62 407.631L1153.56 407.919C1152.71 411.391 1150.97 413.679 1148.17 415.055C1147.93 414.655 1147.29 413.871 1146.9 413.535C1149.5 412.463 1151.03 410.527 1151.62 407.631ZM1156.26 405.647L1157.69 407.151C1155.13 407.903 1151.54 408.191 1148.47 408.239C1148.42 407.775 1148.18 407.039 1147.98 406.591C1150.94 406.511 1154.3 406.207 1156.26 405.647ZM1147.53 409.343H1158.26V411.087H1147.53V409.343ZM1151.19 412.959H1152.95V418.671C1152.95 419.487 1152.82 419.983 1152.28 420.255C1151.75 420.527 1151.02 420.543 1149.99 420.543C1149.94 420.047 1149.74 419.343 1149.51 418.847C1150.12 418.863 1150.74 418.863 1150.94 418.863C1151.13 418.847 1151.19 418.799 1151.19 418.639V412.959ZM1144.18 407.039L1145.27 405.647C1146.17 406.031 1147.34 406.671 1147.93 407.199L1146.78 408.735C1146.25 408.207 1145.11 407.487 1144.18 407.039ZM1143.43 411.375L1144.49 409.967C1145.42 410.319 1146.58 410.927 1147.16 411.439L1146.04 412.975C1145.51 412.463 1144.36 411.775 1143.43 411.375ZM1143.75 419.343C1144.41 418.111 1145.32 416.127 1146.01 414.271L1147.56 415.327C1146.95 417.023 1146.22 418.847 1145.5 420.399L1143.75 419.343ZM1164.6 409.007H1174.49V410.959H1164.6V409.007ZM1170.73 405.727H1172.71V418.255C1172.71 419.471 1172.42 419.983 1171.66 420.271C1170.87 420.575 1169.66 420.607 1167.88 420.591C1167.78 420.063 1167.43 419.199 1167.14 418.687C1168.39 418.751 1169.78 418.751 1170.17 418.735C1170.57 418.719 1170.73 418.607 1170.73 418.239V405.727ZM1165.32 412.895L1167.02 412.095C1167.74 413.263 1168.74 414.847 1169.22 415.823L1167.4 416.751C1166.98 415.775 1166.04 414.127 1165.32 412.895ZM1161.66 410.255L1163.59 408.319L1163.61 408.351V420.543H1161.66V410.255ZM1163.26 405.631L1165.14 406.239C1164.07 409.023 1162.34 411.951 1160.54 413.791C1160.33 413.311 1159.75 412.255 1159.4 411.775C1160.94 410.319 1162.39 407.983 1163.26 405.631ZM1177.78 415.407H1188.44V420.607H1186.5V416.607H1179.64V420.623H1177.78V415.407ZM1178.76 417.199H1187.19V418.319H1178.76V417.199ZM1178.76 418.943H1187.19V420.159H1178.76V418.943ZM1181.96 405.503H1183.9V414.431H1181.96V405.503ZM1177.42 406.511H1188.36V411.263H1177.24V410.143H1186.46V407.631H1177.42V406.511ZM1175.78 408.207H1190.22V409.535H1175.78V408.207ZM1176.89 411.823H1189.03V412.991H1176.89V411.823ZM1175.75 413.567H1190.2V414.895H1175.75V413.567ZM1196.76 412.607H1200.87V414.111H1196.76V412.607ZM1196.76 415.295H1200.89V416.799H1196.76V415.295ZM1193.66 417.999H1204.46V419.759H1193.66V417.999ZM1192.46 409.727H1205.53V420.575H1203.58V411.487H1194.3V420.575H1192.46V409.727ZM1195.94 410.895H1197.66V418.783H1195.94V410.895ZM1200.12 410.895H1201.85V418.767H1200.12V410.895ZM1197.75 407.295L1200.02 407.775C1199.64 408.959 1199.29 410.207 1198.97 411.039L1197.21 410.575C1197.43 409.647 1197.69 408.303 1197.75 407.295ZM1191.78 406.463H1206.25V408.287H1191.78V406.463Z" fill="#4D4C4F"/>
<path d="M1150.06 439.691L1151.66 439.003C1152.25 439.835 1152.87 440.939 1153.11 441.707L1151.42 442.475C1151.22 441.723 1150.63 440.555 1150.06 439.691ZM1155.93 438.955L1157.9 439.611C1157.34 440.603 1156.73 441.627 1156.23 442.315L1154.6 441.707C1155.08 440.955 1155.64 439.819 1155.93 438.955ZM1151.4 447.323H1153.29C1153.08 450.251 1152.5 452.651 1149.48 454.027C1149.27 453.547 1148.74 452.859 1148.34 452.507C1150.89 451.451 1151.24 449.579 1151.4 447.323ZM1154.14 447.099H1155.99V451.531C1155.99 452.011 1156.02 452.075 1156.22 452.075C1156.31 452.075 1156.65 452.075 1156.74 452.075C1156.98 452.075 1157.05 451.819 1157.08 450.155C1157.43 450.443 1158.22 450.763 1158.71 450.891C1158.55 453.163 1158.09 453.787 1156.95 453.787C1156.68 453.787 1156.15 453.787 1155.88 453.787C1154.44 453.787 1154.14 453.227 1154.14 451.547V447.099ZM1151.91 443.851V446.027H1155.88V443.851H1151.91ZM1150.09 442.171H1157.8V447.691H1150.09V442.171ZM1145.94 440.459H1147.82V453.979H1145.94V440.459ZM1143.64 443.467H1149.51V445.259H1143.64V443.467ZM1146.06 444.187L1147.18 444.683C1146.57 446.971 1145.43 449.819 1144.2 451.403C1144.02 450.843 1143.61 450.043 1143.3 449.563C1144.42 448.283 1145.54 445.963 1146.06 444.187ZM1148.44 439.131L1149.72 440.619C1148.09 441.243 1145.86 441.675 1143.99 441.915C1143.91 441.499 1143.67 440.859 1143.45 440.459C1145.22 440.155 1147.21 439.691 1148.44 439.131ZM1147.77 445.691C1148.17 446.027 1149.56 447.467 1149.86 447.835L1148.78 449.339C1148.39 448.571 1147.43 447.115 1146.94 446.443L1147.77 445.691ZM1159.85 439.691H1165.1V441.307H1159.85V439.691ZM1166.25 447.931H1172.76V449.531H1166.25V447.931ZM1159.62 444.587H1165.58V446.267H1159.62V444.587ZM1162.23 445.275H1164.06V451.931C1164.06 452.795 1163.91 453.307 1163.35 453.611C1162.81 453.899 1162.09 453.931 1161.08 453.931C1161.03 453.419 1160.78 452.619 1160.54 452.107C1161.13 452.139 1161.78 452.139 1161.98 452.139C1162.17 452.123 1162.23 452.075 1162.23 451.899V445.275ZM1172.14 447.931H1174.07C1174.07 447.931 1174.06 448.411 1174.02 448.667C1173.75 451.435 1173.48 452.683 1173.02 453.179C1172.66 453.563 1172.31 453.691 1171.85 453.755C1171.45 453.803 1170.78 453.819 1170.04 453.787C1170.01 453.259 1169.82 452.507 1169.53 452.027C1170.1 452.075 1170.63 452.091 1170.89 452.091C1171.13 452.091 1171.27 452.075 1171.42 451.915C1171.7 451.643 1171.94 450.635 1172.14 448.187V447.931ZM1168.74 446.507H1170.65C1170.39 449.787 1169.72 452.507 1165.93 454.011C1165.72 453.547 1165.22 452.875 1164.82 452.523C1168.14 451.307 1168.52 449.115 1168.74 446.507ZM1160.22 443.035L1161.42 441.803C1162.71 442.267 1164.47 443.099 1165.38 443.739L1164.09 445.115C1163.27 444.475 1161.54 443.563 1160.22 443.035ZM1165.11 444.587H1165.37L1165.62 444.507L1166.78 444.891C1166.52 446.347 1166.1 447.995 1165.67 449.083L1164.39 448.475C1164.68 447.547 1164.97 446.059 1165.11 444.859V444.587ZM1171.53 441.371L1173.53 441.675C1172.44 444.651 1170.06 446.187 1166.92 447.083C1166.7 446.651 1166.1 445.867 1165.72 445.483C1168.66 444.891 1170.79 443.659 1171.53 441.371ZM1168.33 438.955L1170.12 439.451C1169.32 441.179 1168.02 442.843 1166.82 443.883C1166.46 443.579 1165.7 443.051 1165.26 442.811C1166.5 441.899 1167.69 440.443 1168.33 438.955ZM1168.55 441.787C1169.66 443.611 1171.9 444.939 1174.7 445.467C1174.28 445.851 1173.74 446.603 1173.48 447.099C1170.52 446.347 1168.3 444.683 1166.95 442.299L1168.55 441.787ZM1162.06 445.163L1163.29 445.643C1162.68 447.771 1161.61 450.187 1160.25 451.419C1160.07 450.875 1159.66 450.075 1159.35 449.563C1160.52 448.571 1161.56 446.763 1162.06 445.163ZM1168.28 440.587H1174.26V442.171H1167.51L1168.28 440.587ZM1164.63 439.691H1165.05L1165.34 439.627L1166.57 440.395C1165.85 441.563 1164.58 442.843 1163.43 443.643C1163.1 443.355 1162.55 442.955 1162.18 442.731C1163.18 442.027 1164.2 440.843 1164.63 440.027V439.691ZM1183.69 442.395H1187.69V443.803H1183.69V442.395ZM1183.61 444.875H1187.8V446.283H1183.61V444.875ZM1184.92 441.355H1186.41V445.691H1184.92V441.355ZM1182.34 439.547H1188.97V441.179H1182.34V439.547ZM1184.47 447.099H1187.67V451.355H1184.47V449.979H1186.3V448.475H1184.47V447.099ZM1183.72 447.099H1185.06V451.915H1183.72V447.099ZM1188.28 439.547H1190.06V451.851C1190.06 452.779 1189.9 453.323 1189.35 453.627C1188.82 453.947 1188.02 453.979 1186.89 453.979C1186.82 453.483 1186.6 452.603 1186.34 452.107C1187.02 452.155 1187.75 452.139 1187.99 452.139C1188.22 452.139 1188.28 452.075 1188.28 451.835V439.547ZM1181.42 439.547H1183.14V445.547C1183.14 448.091 1182.97 451.771 1181.7 454.075C1181.4 453.771 1180.62 453.227 1180.22 453.035C1181.34 450.939 1181.42 447.867 1181.42 445.547V439.547ZM1176.14 443.883H1180.39V445.323H1176.14V443.883ZM1176.23 439.467H1180.34V440.923H1176.23V439.467ZM1176.14 446.059H1180.39V447.515H1176.14V446.059ZM1175.46 441.627H1180.79V443.147H1175.46V441.627ZM1177.02 448.283H1180.36V453.115H1177.02V451.611H1178.82V449.787H1177.02V448.283ZM1176.09 448.283H1177.59V453.787H1176.09V448.283ZM1191.72 452.027H1206.28V453.723H1191.72V452.027ZM1195.3 448.043H1202.65V449.371H1195.3V448.043ZM1195.3 450.027H1202.65V451.355H1195.3V450.027ZM1194.38 445.851H1203.64V452.955H1201.67V447.403H1196.26V453.019H1194.38V445.851ZM1191.83 440.763H1206.17V442.411H1191.83V440.763ZM1197.98 438.971H1199.88V445.419H1197.98V438.971ZM1197.1 441.291L1198.66 441.899C1197.29 444.027 1195 445.851 1192.57 446.779C1192.3 446.347 1191.77 445.659 1191.37 445.307C1193.67 444.555 1195.94 442.987 1197.1 441.291ZM1200.68 441.307C1201.86 442.971 1204.18 444.475 1206.57 445.179C1206.15 445.531 1205.61 446.251 1205.34 446.731C1202.87 445.819 1200.55 444.011 1199.16 441.899L1200.68 441.307Z" fill="#4D4C4F"/>
<path d="M1156.86 473.223H1166.33V474.951H1156.86V473.223ZM1156.28 473.223H1158.14V477.655C1158.14 480.503 1157.85 484.759 1155.94 487.431C1155.59 487.111 1154.78 486.599 1154.33 486.407C1156.12 483.911 1156.28 480.263 1156.28 477.655V473.223ZM1160.41 479.815V480.711H1164.1V479.815H1160.41ZM1160.41 477.655V478.535H1164.1V477.655H1160.41ZM1158.7 476.279H1165.88V482.087H1158.7V476.279ZM1158.97 482.711L1160.66 483.111C1160.25 484.423 1159.5 485.767 1158.76 486.615C1158.41 486.327 1157.69 485.863 1157.27 485.639C1158.01 484.903 1158.63 483.799 1158.97 482.711ZM1163.51 483.175L1165.16 482.519C1165.77 483.495 1166.47 484.791 1166.74 485.655L1164.98 486.407C1164.76 485.559 1164.12 484.199 1163.51 483.175ZM1161.27 474.551L1163.4 474.887C1163.13 475.767 1162.87 476.631 1162.65 477.207L1160.94 476.855C1161.08 476.183 1161.24 475.239 1161.27 474.551ZM1161.24 481.543H1163.06V485.607C1163.06 486.423 1162.95 486.887 1162.38 487.143C1161.83 487.399 1161.08 487.415 1160.09 487.399C1160.02 486.919 1159.8 486.231 1159.59 485.767C1160.15 485.783 1160.81 485.783 1161 485.783C1161.18 485.767 1161.24 485.719 1161.24 485.559V481.543ZM1152.2 473.879L1153.27 472.487C1154.2 472.887 1155.38 473.527 1155.96 474.071L1154.81 475.607C1154.28 475.063 1153.13 474.327 1152.2 473.879ZM1151.43 478.215L1152.5 476.791C1153.42 477.159 1154.58 477.783 1155.18 478.295L1154.04 479.847C1153.51 479.319 1152.36 478.631 1151.43 478.215ZM1151.64 486.183C1152.3 484.919 1153.21 482.887 1153.88 480.999L1155.45 482.055C1154.84 483.783 1154.1 485.623 1153.38 487.207L1151.64 486.183ZM1167.98 480.727H1172.38V482.391H1167.98V480.727ZM1175.83 479.959C1177 482.503 1179.37 484.439 1182.66 485.207C1182.23 485.623 1181.69 486.407 1181.4 486.935C1177.98 485.895 1175.67 483.591 1174.3 480.391L1175.83 479.959ZM1180.12 479.719L1181.75 480.951C1180.44 481.927 1178.84 482.951 1177.62 483.607L1176.39 482.535C1177.59 481.863 1179.18 480.663 1180.12 479.719ZM1173.99 479.591H1175.91V485.463C1175.91 486.407 1175.74 486.871 1175.06 487.143C1174.41 487.399 1173.48 487.415 1172.26 487.415C1172.17 486.903 1171.91 486.167 1171.66 485.671C1172.44 485.719 1173.38 485.719 1173.64 485.703C1173.91 485.703 1173.99 485.639 1173.99 485.415V479.591ZM1171.7 480.727H1172.06L1172.38 480.647L1173.59 481.127C1172.74 483.975 1170.87 485.911 1168.49 486.967C1168.26 486.503 1167.75 485.751 1167.37 485.367C1169.43 484.631 1171.13 482.951 1171.7 480.999V480.727ZM1171.3 477.479V478.407H1178.68V477.479H1171.3ZM1171.3 475.191V476.119H1178.68V475.191H1171.3ZM1169.4 473.751H1180.7V479.863H1169.4V473.751ZM1173.91 472.263L1176.22 472.599C1175.72 473.415 1175.18 474.183 1174.78 474.695L1172.97 474.327C1173.34 473.719 1173.72 472.887 1173.91 472.263ZM1190.06 473.111L1191.66 472.423C1192.25 473.255 1192.87 474.359 1193.11 475.127L1191.42 475.895C1191.22 475.143 1190.63 473.975 1190.06 473.111ZM1195.93 472.375L1197.9 473.031C1197.34 474.023 1196.73 475.047 1196.23 475.735L1194.6 475.127C1195.08 474.375 1195.64 473.239 1195.93 472.375ZM1191.4 480.743H1193.29C1193.08 483.671 1192.5 486.071 1189.48 487.447C1189.27 486.967 1188.74 486.279 1188.34 485.927C1190.89 484.871 1191.24 482.999 1191.4 480.743ZM1194.14 480.519H1195.99V484.951C1195.99 485.431 1196.02 485.495 1196.22 485.495C1196.31 485.495 1196.65 485.495 1196.74 485.495C1196.98 485.495 1197.05 485.239 1197.08 483.575C1197.43 483.863 1198.22 484.183 1198.71 484.311C1198.55 486.583 1198.09 487.207 1196.95 487.207C1196.68 487.207 1196.15 487.207 1195.88 487.207C1194.44 487.207 1194.14 486.647 1194.14 484.967V480.519ZM1191.91 477.271V479.447H1195.88V477.271H1191.91ZM1190.09 475.591H1197.8V481.111H1190.09V475.591ZM1185.94 473.879H1187.82V487.399H1185.94V473.879ZM1183.64 476.887H1189.51V478.679H1183.64V476.887ZM1186.06 477.607L1187.18 478.103C1186.57 480.391 1185.43 483.239 1184.2 484.823C1184.02 484.263 1183.61 483.463 1183.3 482.983C1184.42 481.703 1185.54 479.383 1186.06 477.607ZM1188.44 472.551L1189.72 474.039C1188.09 474.663 1185.86 475.095 1183.99 475.335C1183.91 474.919 1183.67 474.279 1183.45 473.879C1185.22 473.575 1187.21 473.111 1188.44 472.551ZM1187.77 479.111C1188.17 479.447 1189.56 480.887 1189.86 481.255L1188.78 482.759C1188.39 481.991 1187.43 480.535 1186.94 479.863L1187.77 479.111Z" fill="#4D4C4F"/>
<path d="M373.972 76.932C373.972 78.84 373.648 80.61 373 82.242C372.364 83.874 371.458 85.284 370.282 86.472C369.118 87.66 367.714 88.596 366.07 89.28C364.426 89.952 362.602 90.288 360.598 90.288C358.594 90.288 356.77 89.952 355.126 89.28C353.482 88.596 352.072 87.66 350.896 86.472C349.72 85.284 348.808 83.874 348.16 82.242C347.524 80.61 347.206 78.84 347.206 76.932C347.206 75.024 347.524 73.26 348.16 71.64C348.808 70.008 349.72 68.598 350.896 67.41C352.072 66.222 353.482 65.292 355.126 64.62C356.77 63.936 358.594 63.594 360.598 63.594C362.602 63.594 364.426 63.936 366.07 64.62C367.714 65.292 369.118 66.228 370.282 67.428C371.458 68.616 372.364 70.026 373 71.658C373.648 73.278 373.972 75.036 373.972 76.932ZM368.446 76.932C368.446 75.564 368.266 74.34 367.906 73.26C367.546 72.168 367.024 71.244 366.34 70.488C365.668 69.72 364.846 69.138 363.874 68.742C362.914 68.334 361.822 68.13 360.598 68.13C359.374 68.13 358.276 68.334 357.304 68.742C356.332 69.138 355.504 69.72 354.82 70.488C354.148 71.244 353.632 72.168 353.272 73.26C352.912 74.34 352.732 75.564 352.732 76.932C352.732 78.312 352.912 79.548 353.272 80.64C353.632 81.72 354.148 82.638 354.82 83.394C355.504 84.15 356.332 84.732 357.304 85.14C358.276 85.536 359.374 85.734 360.598 85.734C361.822 85.734 362.914 85.536 363.874 85.14C364.846 84.732 365.668 84.15 366.34 83.394C367.024 82.638 367.546 81.72 367.906 80.64C368.266 79.548 368.446 78.312 368.446 76.932ZM383.352 68.112V75.33H392.748V79.578H383.352V90H377.916V63.882H394.548V68.112H383.352ZM403.742 68.112V75.33H413.138V79.578H403.742V90H398.306V63.882H414.938V68.112H403.742ZM424.133 68.112V74.826H432.845V78.912H424.133V85.77H435.329V90H418.697V63.882H435.329V68.112H424.133ZM461.743 63.882V90H458.953C458.533 90 458.179 89.934 457.891 89.802C457.603 89.658 457.321 89.418 457.045 89.082L444.031 72.522C444.067 72.942 444.091 73.356 444.103 73.764C444.127 74.172 444.139 74.55 444.139 74.898V90H439.369V63.882H442.213C442.441 63.882 442.633 63.894 442.789 63.918C442.957 63.93 443.107 63.972 443.239 64.044C443.371 64.104 443.497 64.188 443.617 64.296C443.737 64.404 443.869 64.548 444.013 64.728L457.117 81.36C457.069 80.904 457.033 80.466 457.009 80.046C456.985 79.614 456.973 79.206 456.973 78.822V63.882H461.743ZM481.361 68.886C481.193 69.162 481.019 69.366 480.839 69.498C480.671 69.618 480.449 69.678 480.173 69.678C479.909 69.678 479.621 69.588 479.309 69.408C479.009 69.216 478.655 69.012 478.247 68.796C477.839 68.58 477.371 68.382 476.843 68.202C476.315 68.01 475.697 67.914 474.989 67.914C473.741 67.914 472.805 68.196 472.181 68.76C471.557 69.312 471.245 70.038 471.245 70.938C471.245 71.514 471.413 71.994 471.749 72.378C472.097 72.75 472.547 73.074 473.099 73.35C473.663 73.626 474.299 73.872 475.007 74.088C475.715 74.304 476.441 74.544 477.185 74.808C477.929 75.06 478.655 75.36 479.363 75.708C480.071 76.056 480.701 76.494 481.253 77.022C481.817 77.55 482.267 78.198 482.603 78.966C482.951 79.722 483.125 80.646 483.125 81.738C483.125 82.926 482.915 84.042 482.495 85.086C482.087 86.118 481.493 87.024 480.713 87.804C479.933 88.572 478.967 89.178 477.815 89.622C476.675 90.066 475.379 90.288 473.927 90.288C473.099 90.288 472.271 90.204 471.443 90.036C470.627 89.868 469.835 89.634 469.067 89.334C468.311 89.034 467.597 88.674 466.925 88.254C466.253 87.834 465.665 87.366 465.161 86.85L466.745 84.294C466.877 84.102 467.051 83.946 467.267 83.826C467.483 83.694 467.711 83.628 467.951 83.628C468.275 83.628 468.617 83.748 468.977 83.988C469.337 84.228 469.751 84.492 470.219 84.78C470.687 85.068 471.227 85.332 471.839 85.572C472.463 85.812 473.207 85.932 474.071 85.932C475.331 85.932 476.303 85.644 476.987 85.068C477.683 84.492 478.031 83.634 478.031 82.494C478.031 81.834 477.857 81.3 477.509 80.892C477.173 80.484 476.729 80.142 476.177 79.866C475.625 79.59 474.995 79.356 474.287 79.164C473.579 78.96 472.853 78.738 472.109 78.498C471.365 78.258 470.639 77.97 469.931 77.634C469.223 77.298 468.593 76.854 468.041 76.302C467.489 75.75 467.039 75.066 466.691 74.25C466.355 73.434 466.187 72.42 466.187 71.208C466.187 70.236 466.379 69.294 466.763 68.382C467.147 67.47 467.711 66.66 468.455 65.952C469.199 65.244 470.111 64.674 471.191 64.242C472.283 63.81 473.531 63.594 474.935 63.594C476.507 63.594 477.959 63.84 479.291 64.332C480.635 64.812 481.769 65.484 482.693 66.348L481.361 68.886ZM492.477 68.112V74.826H501.189V78.912H492.477V85.77H503.673V90H487.041V63.882H503.673V68.112H492.477Z" fill="#E6E6E6"/>
<path d="M410.14 81.32H416.236V83.16H410.14V81.32ZM412.188 82.136H414.092V90.12H412.188V82.136ZM409.868 89.832C411.468 89.512 414.012 88.936 416.412 88.376L416.62 90.088C414.428 90.712 412.092 91.352 410.332 91.816L409.868 89.832ZM417.628 82.264H424.956V84.088H417.628V82.264ZM418.028 79.384L419.932 79.768C419.18 82.776 417.964 85.688 416.524 87.528C416.172 87.224 415.34 86.632 414.876 86.392C416.332 84.776 417.42 82.104 418.028 79.384ZM421.884 83.464L423.852 83.752C422.764 89.48 420.332 92.712 415.324 94.456C415.164 93.992 414.636 93.112 414.3 92.68C418.908 91.304 421.052 88.504 421.884 83.464ZM418.524 83.672C419.404 87.976 421.34 91.336 425.228 92.728C424.78 93.112 424.188 93.912 423.9 94.456C419.724 92.728 417.836 89.064 416.748 83.992L418.524 83.672ZM436.684 80.456C436.54 80.904 436.396 81.688 436.3 82.072C435.628 84.904 434.588 88.232 433.052 90.168C431.58 92.024 430.556 92.856 429.084 92.856C427.756 92.856 426.54 91.736 426.54 89.672C426.54 87.528 427.772 85.24 429.644 84.04C431.356 82.936 432.972 82.536 434.684 82.536C437.98 82.536 440.348 84.76 440.348 88.088C440.348 91.48 437.932 93.432 434.588 93.944L433.372 92.088C436.892 91.784 438.268 89.992 438.268 87.992C438.268 85.816 436.78 84.312 434.476 84.312C432.812 84.312 431.516 84.92 430.396 85.736C429.148 86.616 428.412 88.184 428.412 89.496C428.412 90.28 428.748 90.776 429.308 90.776C430.14 90.776 431.02 89.752 431.852 88.488C433.084 86.68 434.012 83.736 434.348 81.768C434.428 81.304 434.476 80.632 434.46 80.248L436.684 80.456ZM429.932 80.984C430.012 81.528 430.14 82.056 430.268 82.52C430.764 84.312 431.612 86.76 432.348 87.912C432.892 88.776 433.644 89.784 434.396 90.488L432.764 91.784C432.14 91.08 431.66 90.472 431.148 89.656C430.172 88.232 429.212 85.672 428.476 83.304C428.3 82.744 428.108 82.232 427.82 81.656L429.932 80.984Z" fill="#4D4C4F"/>
<path d="M972.154 76.932C972.154 78.84 971.83 80.598 971.182 82.206C970.546 83.802 969.64 85.176 968.464 86.328C967.3 87.48 965.896 88.38 964.252 89.028C962.608 89.676 960.784 90 958.78 90H948.736V63.882H958.78C960.784 63.882 962.608 64.206 964.252 64.854C965.896 65.502 967.3 66.408 968.464 67.572C969.64 68.724 970.546 70.098 971.182 71.694C971.83 73.29 972.154 75.036 972.154 76.932ZM966.61 76.932C966.61 75.564 966.43 74.334 966.07 73.242C965.71 72.15 965.194 71.226 964.522 70.47C963.85 69.714 963.028 69.132 962.056 68.724C961.096 68.316 960.004 68.112 958.78 68.112H954.172V85.77H958.78C960.004 85.77 961.096 85.572 962.056 85.176C963.028 84.768 963.85 84.186 964.522 83.43C965.194 82.662 965.71 81.732 966.07 80.64C966.43 79.548 966.61 78.312 966.61 76.932ZM981.559 68.112V74.826H990.271V78.912H981.559V85.77H992.755V90H976.123V63.882H992.755V68.112H981.559ZM1002.23 68.112V75.33H1011.63V79.578H1002.23V90H996.795V63.882H1013.43V68.112H1002.23ZM1022.62 68.112V74.826H1031.33V78.912H1022.62V85.77H1033.82V90H1017.19V63.882H1033.82V68.112H1022.62ZM1060.23 63.882V90H1057.44C1057.02 90 1056.67 89.934 1056.38 89.802C1056.09 89.658 1055.81 89.418 1055.53 89.082L1042.52 72.522C1042.56 72.942 1042.58 73.356 1042.59 73.764C1042.62 74.172 1042.63 74.55 1042.63 74.898V90H1037.86V63.882H1040.7C1040.93 63.882 1041.12 63.894 1041.28 63.918C1041.45 63.93 1041.6 63.972 1041.73 64.044C1041.86 64.104 1041.99 64.188 1042.11 64.296C1042.23 64.404 1042.36 64.548 1042.5 64.728L1055.61 81.36C1055.56 80.904 1055.52 80.466 1055.5 80.046C1055.47 79.614 1055.46 79.206 1055.46 78.822V63.882H1060.23ZM1079.85 68.886C1079.68 69.162 1079.51 69.366 1079.33 69.498C1079.16 69.618 1078.94 69.678 1078.66 69.678C1078.4 69.678 1078.11 69.588 1077.8 69.408C1077.5 69.216 1077.14 69.012 1076.73 68.796C1076.33 68.58 1075.86 68.382 1075.33 68.202C1074.8 68.01 1074.18 67.914 1073.48 67.914C1072.23 67.914 1071.29 68.196 1070.67 68.76C1070.04 69.312 1069.73 70.038 1069.73 70.938C1069.73 71.514 1069.9 71.994 1070.24 72.378C1070.58 72.75 1071.03 73.074 1071.59 73.35C1072.15 73.626 1072.79 73.872 1073.49 74.088C1074.2 74.304 1074.93 74.544 1075.67 74.808C1076.42 75.06 1077.14 75.36 1077.85 75.708C1078.56 76.056 1079.19 76.494 1079.74 77.022C1080.3 77.55 1080.75 78.198 1081.09 78.966C1081.44 79.722 1081.61 80.646 1081.61 81.738C1081.61 82.926 1081.4 84.042 1080.98 85.086C1080.57 86.118 1079.98 87.024 1079.2 87.804C1078.42 88.572 1077.45 89.178 1076.3 89.622C1075.16 90.066 1073.87 90.288 1072.41 90.288C1071.59 90.288 1070.76 90.204 1069.93 90.036C1069.11 89.868 1068.32 89.634 1067.55 89.334C1066.8 89.034 1066.08 88.674 1065.41 88.254C1064.74 87.834 1064.15 87.366 1063.65 86.85L1065.23 84.294C1065.36 84.102 1065.54 83.946 1065.75 83.826C1065.97 83.694 1066.2 83.628 1066.44 83.628C1066.76 83.628 1067.1 83.748 1067.46 83.988C1067.82 84.228 1068.24 84.492 1068.71 84.78C1069.17 85.068 1069.71 85.332 1070.33 85.572C1070.95 85.812 1071.69 85.932 1072.56 85.932C1073.82 85.932 1074.79 85.644 1075.47 85.068C1076.17 84.492 1076.52 83.634 1076.52 82.494C1076.52 81.834 1076.34 81.3 1076 80.892C1075.66 80.484 1075.22 80.142 1074.66 79.866C1074.11 79.59 1073.48 79.356 1072.77 79.164C1072.07 78.96 1071.34 78.738 1070.6 78.498C1069.85 78.258 1069.13 77.97 1068.42 77.634C1067.71 77.298 1067.08 76.854 1066.53 76.302C1065.98 75.75 1065.53 75.066 1065.18 74.25C1064.84 73.434 1064.67 72.42 1064.67 71.208C1064.67 70.236 1064.87 69.294 1065.25 68.382C1065.63 67.47 1066.2 66.66 1066.94 65.952C1067.69 65.244 1068.6 64.674 1069.68 64.242C1070.77 63.81 1072.02 63.594 1073.42 63.594C1074.99 63.594 1076.45 63.84 1077.78 64.332C1079.12 64.812 1080.26 65.484 1081.18 66.348L1079.85 68.886ZM1090.96 68.112V74.826H1099.68V78.912H1090.96V85.77H1102.16V90H1085.53V63.882H1102.16V68.112H1090.96Z" fill="#00A3AF" fill-opacity="0.15"/>
<path d="M1009.83 85.448H1024.15V87.32H1009.83V85.448ZM1018.25 83.48H1020.22V92.216C1020.22 93.304 1019.98 93.832 1019.24 94.12C1018.5 94.424 1017.42 94.456 1015.91 94.456C1015.83 93.896 1015.51 93.048 1015.24 92.504C1016.28 92.552 1017.46 92.552 1017.8 92.552C1018.14 92.552 1018.25 92.456 1018.25 92.184V83.48ZM1011.59 88.68L1013.11 87.704C1014.09 88.648 1015.19 89.96 1015.66 90.904L1014.01 92.008C1013.59 91.08 1012.54 89.688 1011.59 88.68ZM1015.93 79.416H1017.98V82.328H1015.93V79.416ZM1010.1 80.968H1023.82V84.776H1021.75V82.792H1012.06V84.776H1010.1V80.968ZM1030.78 80.152C1030.55 80.936 1030.22 82.584 1030.12 83.48C1030.89 82.248 1032.3 80.888 1034.09 80.888C1036.31 80.888 1038.04 83.08 1038.04 86.6C1038.04 91.128 1035.27 93.272 1031.03 94.056L1029.82 92.2C1033.38 91.656 1035.88 90.472 1035.88 86.6C1035.88 84.136 1035.05 82.76 1033.72 82.76C1031.83 82.76 1030.17 85.608 1030.1 87.704C1030.07 88.152 1030.09 88.664 1030.17 89.4L1028.2 89.544C1028.1 88.92 1028.01 87.944 1028.01 86.872C1028.01 85.368 1028.22 83.4 1028.46 81.736C1028.52 81.144 1028.57 80.504 1028.58 80.072L1030.78 80.152Z" fill="#00A3AF"/>
<circle cx="576" cy="239" r="75" fill="#89A1B0"/>
<circle cx="875" cy="239" r="75" fill="#CAB5A6"/>
<circle cx="1175" cy="239" r="75" fill="#DBCD1F"/>
<path d="M101 239H275" stroke="#4D4C4F" stroke-width="3" stroke-linecap="round"/>
<circle cx="275" cy="239" r="75" fill="#5F5AA6"/>
<path d="M275 239L501 239" stroke="#4D4C4F" stroke-width="3" stroke-linecap="round"/>
<path d="M875 239L1100 239" stroke="#4D4C4F" stroke-width="3" stroke-linecap="round"/>
<path d="M576 239L800 239" stroke="#4D4C4F" stroke-width="3" stroke-linecap="round"/>
<path d="M768 224L799.721 238.792" stroke="#4D4C4F" stroke-width="3" stroke-linecap="round"/>
<path d="M1175 239L1349 239" stroke="#4D4C4F" stroke-width="3" stroke-linecap="round"/>
<path d="M1317 224L1348.72 238.792" stroke="#4D4C4F" stroke-width="3" stroke-linecap="round"/>
<defs>
<filter id="filter0_d_171_255" x="0" y="0" width="1460" height="526" filterUnits="userSpaceOnUse" color-interpolation-filters="sRGB">
<feFlood flood-opacity="0" result="BackgroundImageFix"/>
<feColorMatrix in="SourceAlpha" type="matrix" values="0 0 0 0 0 0 0 0 0 0 0 0 0 0 0 0 0 0 127 0" result="hardAlpha"/>
<feOffset dx="5" dy="5"/>
<feGaussianBlur stdDeviation="5"/>
<feComposite in2="hardAlpha" operator="out"/>
<feColorMatrix type="matrix" values="0 0 0 0 0.666667 0 0 0 0 0.666667 0 0 0 0 0.666667 0 0 0 1 0"/>
<feBlend mode="normal" in2="BackgroundImageFix" result="effect1_dropShadow_171_255"/>
<feBlend mode="normal" in="SourceGraphic" in2="effect1_dropShadow_171_255" result="shape"/>
</filter>
</defs>
</svg>
